<svg width="32" height="32" viewBox="0 0 32 32" fill="none" xmlns="http://www.w3.org/2000/svg">
<path d="M18.1875 9.78745C18.1875 11.4875 17.6438 12.8812 16.5625 13.9687C15.4813 15.0562 14.0875 15.5937 12.3813 15.5937C10.6813 15.5937 9.28751 15.05 8.20001 13.9687C7.11251 12.8875 6.57501 11.4937 6.57501 9.78745C6.57501 8.0812 7.11876 6.6937 8.20001 5.6062C9.28126 4.5187 10.675 3.9812 12.3813 3.9812C14.0813 3.9812 15.475 4.52495 16.5625 5.6062C17.65 6.68745 18.1875 8.08745 18.1875 9.78745Z" fill="#FDBF40"/>
<path d="M24.7687 24.3812V25.2312C24.7687 26.775 23.5188 28.0187 21.9813 28.0187H2.79375C1.25 28.0187 0 26.7687 0 25.225V24.375C0 23.3937 0.24375 22.5625 0.7375 21.875C1.225 21.1937 1.88125 20.6374 2.63125 20.2687C3.95 19.5999 5.5 19.0437 7.29375 18.6062C9.0875 18.1687 10.7812 17.95 12.3813 17.95C13.9813 17.95 15.6688 18.1687 17.45 18.6062C19.2313 19.0437 20.7812 19.5999 22.0938 20.2687C22.85 20.6437 23.5063 21.1937 24.0063 21.875C24.5188 22.5687 24.7687 23.4 24.7687 24.3812Z" fill="#FDBF40"/>
<path d="M27.9 12.9249H31.1562C31.625 12.9249 32 12.5437 32 12.0812V10.4999C32 10.0312 31.6187 9.65615 31.1562 9.65615H27.9V6.3999C27.9 5.93115 27.5187 5.55615 27.0562 5.55615H25.475C25.0062 5.55615 24.6312 5.9374 24.6312 6.3999V9.65615H21.3812C20.9125 9.65615 20.5375 10.0374 20.5375 10.4999V12.0812C20.5375 12.5499 20.9187 12.9249 21.3812 12.9249H24.6375V16.1812C24.6375 16.6499 25.0187 17.0249 25.4812 17.0249H27.0625C27.5312 17.0249 27.9062 16.6437 27.9062 16.1812L27.9 12.9249Z" fill="#FE6C5F"/>
</svg>
