<svg width="213" height="20" viewBox="0 0 213 20" fill="none" xmlns="http://www.w3.org/2000/svg">
<path d="M4 16C5.16667 15.0077 8.2 12.4278 11 10.0463C12.6667 8.62867 13.8256 7.14072 14.5609 5.9592C15.0052 5.24537 16.173 5.1494 16.6247 5.85858L21.2916 13.1866C21.6474 13.7452 22.438 13.81 22.8799 13.3167L28.8184 6.68742C29.3377 6.1077 30.2932 6.31609 30.5332 7.05647C31.6397 10.4693 33.3222 15.1495 34 15.1495C35 15.1495 39 2.81678 40.5 4.09257C42 5.36837 44 15.1495 45.5 15.1495C47 15.1495 48 4.09257 50 4.09257C52 4.09257 54 14.2989 55.5 14.2989C56.591 14.2989 58.8669 11.2523 60.1481 9.31397C60.3654 8.98511 60.7442 8.80612 61.1346 8.86038C70.3346 10.1387 91.3708 12.0402 107 10.0463" stroke="#F45725" stroke-width="4" stroke-linecap="round"/>
<path d="M209 5.69491C177.5 10.0028 114.6 16.5508 115.002 8.27966C115.404 0.00846316 177.835 9.31356 209 15" stroke="#70B6F6" stroke-width="4" stroke-linecap="round"/>
</svg>
