<svg width="20" height="20" viewBox="0 0 20 20" fill="none" xmlns="http://www.w3.org/2000/svg">
<path d="M9.99996 1.66675C5.40829 1.66675 1.66663 5.40841 1.66663 10.0001C1.66663 14.5917 5.40829 18.3334 9.99996 18.3334C14.5916 18.3334 18.3333 14.5917 18.3333 10.0001C18.3333 5.40841 14.5916 1.66675 9.99996 1.66675ZM9.37496 6.66675C9.37496 6.32508 9.65829 6.04175 9.99996 6.04175C10.3416 6.04175 10.625 6.32508 10.625 6.66675V10.8334C10.625 11.1751 10.3416 11.4584 9.99996 11.4584C9.65829 11.4584 9.37496 11.1751 9.37496 10.8334V6.66675ZM10.7666 13.6501C10.725 13.7584 10.6666 13.8417 10.5916 13.9251C10.5083 14.0001 10.4166 14.0584 10.3166 14.1001C10.2166 14.1417 10.1083 14.1667 9.99996 14.1667C9.89163 14.1667 9.78329 14.1417 9.68329 14.1001C9.58329 14.0584 9.49163 14.0001 9.40829 13.9251C9.33329 13.8417 9.27496 13.7584 9.23329 13.6501C9.19163 13.5501 9.16663 13.4417 9.16663 13.3334C9.16663 13.2251 9.19163 13.1167 9.23329 13.0167C9.27496 12.9167 9.33329 12.8251 9.40829 12.7417C9.49163 12.6667 9.58329 12.6084 9.68329 12.5667C9.88329 12.4834 10.1166 12.4834 10.3166 12.5667C10.4166 12.6084 10.5083 12.6667 10.5916 12.7417C10.6666 12.8251 10.725 12.9167 10.7666 13.0167C10.8083 13.1167 10.8333 13.2251 10.8333 13.3334C10.8333 13.4417 10.8083 13.5501 10.7666 13.6501Z" fill="#FFC700"/>
</svg>
