<svg width="132" height="32" viewBox="0 0 132 32" fill="none" xmlns="http://www.w3.org/2000/svg">
<path opacity="0.8" fill-rule="evenodd" clip-rule="evenodd" d="M1.0835 7.84902C1.0835 4.51447 3.78669 1.81128 7.12123 1.81128H25.2344C28.569 1.81128 31.2722 4.51447 31.2722 7.84902V19.5128L19.1967 32L7.12123 32C3.78668 32 1.0835 29.2968 1.0835 25.9622V7.84902ZM15.791 16.0361V22.9433H17.4695V14.249H15.791L14.1608 15.2271V17.0384L15.791 16.0361Z" fill="white" fill-opacity="0.8"/>
<path d="M23.5886 19.5129L31.2729 19.5129L19.1975 32.0001L19.1975 23.904C19.1975 21.4789 21.1634 19.5129 23.5886 19.5129Z" fill="white"/>
<path d="M1.0835 7.84901C1.0835 4.51446 3.78668 1.81128 7.12123 1.81128H25.2344C28.569 1.81128 31.2722 4.51447 31.2722 7.84901V9.05656H1.0835V7.84901Z" fill="white"/>
<rect x="7.12061" width="2.41509" height="5.43396" rx="1.20755" fill="url(#paint0_linear_3374_5344)"/>
<rect x="22.8198" width="2.41509" height="5.43396" rx="1.20755" fill="url(#paint1_linear_3374_5344)"/>
<path d="M44.3011 9.32651C45.4921 9.32651 46.5402 9.55676 47.4453 10.0173C48.3663 10.4619 49.0729 11.105 49.5652 11.9466C50.0734 12.7882 50.3274 13.7648 50.3274 14.8764C50.3274 15.988 50.0734 16.9646 49.5652 17.8062C49.0729 18.6319 48.3663 19.275 47.4453 19.7355C46.5402 20.1802 45.4921 20.4025 44.3011 20.4025H41.0855V26H37.5127V9.32651H44.3011ZM41.0855 17.4251H43.9677C44.8093 17.4251 45.4762 17.1948 45.9685 16.7343C46.4608 16.2738 46.7069 15.6545 46.7069 14.8764C46.7069 14.0824 46.4608 13.4552 45.9685 12.9947C45.4762 12.5342 44.8093 12.3039 43.9677 12.3039H41.0855V17.4251ZM50.9852 9.32651H54.3437V26H50.9852V9.32651ZM67.654 23.1655V26H65.939C64.3987 26 63.6444 25.3331 63.6762 23.9992C63.2316 24.6979 62.6837 25.2298 62.0327 25.5951C61.3816 25.9603 60.5956 26.1429 59.6746 26.1429C58.3089 26.1429 57.2053 25.8333 56.3637 25.214C55.5379 24.5788 55.1251 23.6895 55.1251 22.5462C55.1251 21.2441 55.6015 20.2437 56.5542 19.545C57.5229 18.8304 58.9203 18.4731 60.7464 18.4731H63.176V17.8776C63.176 17.3218 62.9696 16.8852 62.5567 16.5676C62.1438 16.2341 61.588 16.0674 60.8893 16.0674C60.27 16.0674 59.7619 16.2023 59.3649 16.4723C58.9679 16.7422 58.7297 17.1075 58.6503 17.568H55.4109C55.5221 16.3135 56.0779 15.3448 57.0783 14.662C58.0787 13.9633 59.4046 13.614 61.0561 13.614C62.7869 13.614 64.1208 13.9951 65.0577 14.7573C66.0105 15.5195 66.4869 16.6231 66.4869 18.0682V22.3795C66.4869 22.6812 66.5504 22.8876 66.6774 22.9988C66.8045 23.1099 67.003 23.1655 67.2729 23.1655H67.654ZM63.176 20.7121H60.7226C60.0239 20.7121 59.4761 20.855 59.0791 21.1409C58.698 21.4108 58.5074 21.7999 58.5074 22.308C58.5074 22.7368 58.6662 23.0782 58.9838 23.3322C59.3173 23.5863 59.7619 23.7133 60.3177 23.7133C61.1911 23.7133 61.8818 23.4672 62.39 22.975C62.8981 22.4668 63.1601 21.7919 63.176 20.9503V20.7121ZM74.8973 13.614C76.3264 13.614 77.5015 14.0586 78.4225 14.9479C79.3435 15.8371 79.804 17.306 79.804 19.3544V26H76.4455V19.545C76.4455 17.433 75.6198 16.377 73.9683 16.377C73.095 16.377 72.4201 16.6708 71.9437 17.2583C71.4673 17.8459 71.2291 18.6716 71.2291 19.7355V26H67.8706V13.7569H70.8004L71.11 15.2813C71.5388 14.7573 72.0548 14.3524 72.6583 14.0665C73.2617 13.7648 74.008 13.614 74.8973 13.614ZM82.5287 8.65957C83.0845 8.65957 83.545 8.84218 83.9102 9.20741C84.2755 9.55676 84.4581 10.0014 84.4581 10.5413C84.4581 11.0812 84.2755 11.5338 83.9102 11.899C83.545 12.2642 83.0845 12.4468 82.5287 12.4468C81.9729 12.4468 81.5045 12.2642 81.1234 11.899C80.7581 11.5338 80.5755 11.0812 80.5755 10.5413C80.5755 10.0014 80.7581 9.55676 81.1234 9.20741C81.5045 8.84218 81.9729 8.65957 82.5287 8.65957ZM80.8375 13.7569H84.1961V26H80.8375V13.7569ZM92.5281 13.614C93.6238 13.614 94.5925 13.876 95.4341 14.4C96.2916 14.9082 96.9585 15.6386 97.4349 16.5914C97.9272 17.5442 98.1733 18.6478 98.1733 19.9023C98.1733 21.1567 97.9272 22.2524 97.4349 23.1893C96.9585 24.1262 96.2916 24.8567 95.4341 25.3807C94.5766 25.8888 93.6 26.1429 92.5043 26.1429C90.9322 26.1429 89.7016 25.5792 88.8123 24.4517V30.7639H85.4538V13.7569H88.3836L88.717 15.4481C89.1299 14.8923 89.6539 14.4477 90.2891 14.1142C90.9402 13.7807 91.6865 13.614 92.5281 13.614ZM91.7421 23.4037C92.6472 23.4037 93.3777 23.0782 93.9335 22.4271C94.4892 21.7602 94.7671 20.9027 94.7671 19.8546C94.7671 18.8066 94.4892 17.965 93.9335 17.3298C93.3777 16.6787 92.6472 16.3532 91.7421 16.3532C90.837 16.3532 90.1144 16.6787 89.5745 17.3298C89.0346 17.965 88.7647 18.8066 88.7647 19.8546C88.7647 20.9186 89.0346 21.776 89.5745 22.4271C90.1144 23.0782 90.837 23.4037 91.7421 23.4037ZM105.935 13.614C107.38 13.614 108.563 14.0586 109.484 14.9479C110.421 15.8371 110.889 17.306 110.889 19.3544V26H107.531V19.4973C107.531 18.481 107.324 17.7109 106.911 17.1869C106.499 16.647 105.879 16.377 105.053 16.377C104.196 16.377 103.521 16.6708 103.029 17.2583C102.552 17.8459 102.314 18.6637 102.314 19.7117V26H98.9558V9.32651H102.314V15.2575C103.219 14.1618 104.426 13.614 105.935 13.614ZM113.886 13.7569L116.863 22.5462L119.769 13.7569H123.366L117.935 27.7388C117.649 28.4851 117.379 29.0647 117.125 29.4776C116.871 29.9064 116.546 30.224 116.149 30.4304C115.768 30.6527 115.267 30.7639 114.648 30.7639H111.385V27.9294H113.243C113.672 27.9294 113.981 27.8579 114.172 27.715C114.362 27.5721 114.545 27.2942 114.72 26.8813L115.029 26.0715L110.313 13.7569H113.886Z" fill="white"/>
<defs>
<linearGradient id="paint0_linear_3374_5344" x1="8.32815" y1="0" x2="8.32815" y2="5.43396" gradientUnits="userSpaceOnUse">
<stop stop-color="#E6EEFF"/>
<stop offset="1" stop-color="#89AFFF"/>
</linearGradient>
<linearGradient id="paint1_linear_3374_5344" x1="24.0274" y1="0" x2="24.0274" y2="5.43396" gradientUnits="userSpaceOnUse">
<stop stop-color="#E6EEFF"/>
<stop offset="1" stop-color="#89AFFF"/>
</linearGradient>
</defs>
</svg>
