<svg width="462" height="393" viewBox="0 0 462 393" fill="none" xmlns="http://www.w3.org/2000/svg">
<path d="M368.648 213.742C386.361 208.163 403.167 209.379 418.155 213.742C436.323 219.03 447.561 225.917 444.499 237.398C439.957 254.43 401.804 263.892 372.281 253.957C340.462 243.249 343.232 221.746 368.648 213.742Z" stroke="#EA97C4" stroke-width="8" stroke-linecap="round"/>
<g filter="url(#filter0_bi_3374_5217)">
<path d="M105.288 211.928C156.079 211.928 197.252 253.102 197.252 303.892L197.252 316.577C197.252 334.966 182.344 349.874 163.955 349.874L46.6216 349.874C28.232 349.874 13.3243 334.966 13.3243 316.577L13.3243 303.892C13.3243 253.102 54.498 211.928 105.288 211.928Z" fill="url(#paint0_linear_3374_5217)"/>
</g>
<g filter="url(#filter1_bi_3374_5217)">
<ellipse cx="105.288" cy="146.919" rx="55.4955" ry="55.4955" transform="rotate(-180 105.288 146.919)" fill="url(#paint1_linear_3374_5217)"/>
</g>
<g filter="url(#filter2_b_3374_5217)">
<path fill-rule="evenodd" clip-rule="evenodd" d="M83.7671 131.731C80.582 131.731 78 134.313 78 137.498C78 140.683 80.582 143.265 83.7671 143.265C86.9522 143.265 89.5342 140.683 89.5342 137.498C89.5342 134.313 86.9522 131.731 83.7671 131.731ZM123.552 130.847C128.268 129.11 134.526 128.924 137.033 129.021C138.689 129.084 139.979 130.478 139.916 132.134C139.852 133.789 138.458 135.08 136.802 135.016C134.676 134.934 129.778 135.125 126.196 136.281C129.266 136.813 132.507 137.818 135.448 139.583C136.868 140.435 137.329 142.278 136.477 143.699C135.624 145.12 133.781 145.58 132.361 144.728C127.604 141.874 121.383 141.529 117.531 141.869C115.821 142.02 114.469 140.982 113.926 139.714C113.364 138.402 113.579 136.575 115.092 135.475C117.062 134.044 120.153 132.099 123.552 130.847ZM128.948 155.52C130.343 156.414 130.749 158.27 129.855 159.665C127.156 163.875 118.827 171.731 105.959 171.731C93.1632 171.731 83.809 163.953 80.5968 159.912C79.5659 158.615 79.7816 156.728 81.0786 155.697C82.3756 154.666 84.2628 154.882 85.2938 156.179C87.7438 159.261 95.5219 165.731 105.959 165.731C116.324 165.731 122.936 159.34 124.803 156.427C125.697 155.032 127.553 154.626 128.948 155.52Z" fill="url(#paint2_linear_3374_5217)"/>
</g>
<g filter="url(#filter3_bi_3374_5217)">
<ellipse cx="357.036" cy="146.919" rx="55.4955" ry="55.4955" transform="rotate(-180 357.036 146.919)" fill="url(#paint3_linear_3374_5217)"/>
</g>
<g filter="url(#filter4_b_3374_5217)">
<path fill-rule="evenodd" clip-rule="evenodd" d="M347.81 121C346.877 118.401 344.108 116.56 340.966 116.56H317.983L295 116.56C290.582 116.56 286.899 120.2 288.027 124.472C288.381 125.812 288.825 127.131 289.358 128.417C290.915 132.176 293.198 135.592 296.075 138.469C298.952 141.346 302.367 143.628 306.126 145.185C309.885 146.742 313.914 147.543 317.983 147.543C322.052 147.543 326.081 146.742 329.84 145.185C333.599 143.628 337.014 141.346 339.891 138.469C342.768 135.592 345.05 132.176 346.608 128.417C346.937 127.623 347.232 126.816 347.493 126H362.473C362.734 126.816 363.029 127.623 363.358 128.417C364.915 132.176 367.198 135.592 370.075 138.469C372.952 141.346 376.367 143.628 380.126 145.185C383.885 146.742 387.914 147.543 391.983 147.543C396.052 147.543 400.081 146.742 403.84 145.185C407.599 143.628 411.014 141.346 413.891 138.469C416.768 135.592 419.05 132.176 420.608 128.417C421.14 127.131 421.585 125.812 421.939 124.472C423.067 120.2 419.384 116.56 414.966 116.56H391.983L369 116.56C365.858 116.56 363.088 118.401 362.156 121H347.81Z" fill="url(#paint4_linear_3374_5217)"/>
</g>
<g filter="url(#filter5_bi_3374_5217)">
<path d="M357.036 211.928C407.826 211.928 449 253.102 449 303.892L449 316.577C449 334.966 434.092 349.874 415.703 349.874L298.369 349.874C279.98 349.874 265.072 334.966 265.072 316.577L265.072 303.892C265.072 253.102 306.246 211.928 357.036 211.928Z" fill="url(#paint5_linear_3374_5217)"/>
</g>
<g filter="url(#filter6_bi_3374_5217)">
<path d="M242.261 211.928C297.43 211.928 342.153 256.651 342.153 311.82L342.153 346.703C342.153 365.092 327.245 380 308.856 380L151.883 380C133.493 380 118.586 365.092 118.586 346.703L118.586 311.82C118.586 256.651 163.309 211.928 218.477 211.928L242.261 211.928Z" fill="url(#paint6_linear_3374_5217)"/>
</g>
<path d="M222.916 25.3638C239.292 23.8868 255.76 26.9244 270.532 34.1468C285.303 41.3692 297.814 52.5003 306.706 66.3316" stroke="#FFC700" stroke-width="24" stroke-linecap="round"/>
<g filter="url(#filter7_bi_3374_5217)">
<circle cx="231.162" cy="115.207" r="87.2072" transform="rotate(-180 231.162 115.207)" fill="url(#paint7_linear_3374_5217)"/>
</g>
<g filter="url(#filter8_b_3374_5217)">
<path d="M259 115C263.418 115 267.061 118.601 266.409 122.971C264.712 134.344 259.413 144.955 251.184 153.184C241.057 163.311 227.322 169 213 169C198.678 169 184.943 163.311 174.816 153.184C166.587 144.955 161.289 134.344 159.591 122.971C158.939 118.601 162.582 115 167 115L213 115H259Z" fill="url(#paint8_linear_3374_5217)"/>
</g>
<defs>
<filter id="filter0_bi_3374_5217" x="-23.1442" y="175.46" width="256.865" height="210.883" filterUnits="userSpaceOnUse" color-interpolation-filters="sRGB">
<feFlood flood-opacity="0" result="BackgroundImageFix"/>
<feGaussianBlur in="BackgroundImageFix" stdDeviation="18.2342"/>
<feComposite in2="SourceAlpha" operator="in" result="effect1_backgroundBlur_3374_5217"/>
<feBlend mode="normal" in="SourceGraphic" in2="effect1_backgroundBlur_3374_5217" result="shape"/>
<feColorMatrix in="SourceAlpha" type="matrix" values="0 0 0 0 0 0 0 0 0 0 0 0 0 0 0 0 0 0 127 0" result="hardAlpha"/>
<feOffset dx="-3.17117"/>
<feGaussianBlur stdDeviation="3.17117"/>
<feComposite in2="hardAlpha" operator="arithmetic" k2="-1" k3="1"/>
<feColorMatrix type="matrix" values="0 0 0 0 1 0 0 0 0 1 0 0 0 0 1 0 0 0 0.1 0"/>
<feBlend mode="normal" in2="shape" result="effect2_innerShadow_3374_5217"/>
</filter>
<filter id="filter1_bi_3374_5217" x="13.3245" y="54.9549" width="183.928" height="183.928" filterUnits="userSpaceOnUse" color-interpolation-filters="sRGB">
<feFlood flood-opacity="0" result="BackgroundImageFix"/>
<feGaussianBlur in="BackgroundImageFix" stdDeviation="18.2342"/>
<feComposite in2="SourceAlpha" operator="in" result="effect1_backgroundBlur_3374_5217"/>
<feBlend mode="normal" in="SourceGraphic" in2="effect1_backgroundBlur_3374_5217" result="shape"/>
<feColorMatrix in="SourceAlpha" type="matrix" values="0 0 0 0 0 0 0 0 0 0 0 0 0 0 0 0 0 0 127 0" result="hardAlpha"/>
<feOffset dx="-3.17117"/>
<feGaussianBlur stdDeviation="3.17117"/>
<feComposite in2="hardAlpha" operator="arithmetic" k2="-1" k3="1"/>
<feColorMatrix type="matrix" values="0 0 0 0 1 0 0 0 0 1 0 0 0 0 1 0 0 0 0.1 0"/>
<feBlend mode="normal" in2="shape" result="effect2_innerShadow_3374_5217"/>
</filter>
<filter id="filter2_b_3374_5217" x="74.4" y="125.4" width="69.1178" height="49.9307" filterUnits="userSpaceOnUse" color-interpolation-filters="sRGB">
<feFlood flood-opacity="0" result="BackgroundImageFix"/>
<feGaussianBlur in="BackgroundImageFix" stdDeviation="1.8"/>
<feComposite in2="SourceAlpha" operator="in" result="effect1_backgroundBlur_3374_5217"/>
<feBlend mode="normal" in="SourceGraphic" in2="effect1_backgroundBlur_3374_5217" result="shape"/>
</filter>
<filter id="filter3_bi_3374_5217" x="265.072" y="54.9549" width="183.928" height="183.928" filterUnits="userSpaceOnUse" color-interpolation-filters="sRGB">
<feFlood flood-opacity="0" result="BackgroundImageFix"/>
<feGaussianBlur in="BackgroundImageFix" stdDeviation="18.2342"/>
<feComposite in2="SourceAlpha" operator="in" result="effect1_backgroundBlur_3374_5217"/>
<feBlend mode="normal" in="SourceGraphic" in2="effect1_backgroundBlur_3374_5217" result="shape"/>
<feColorMatrix in="SourceAlpha" type="matrix" values="0 0 0 0 0 0 0 0 0 0 0 0 0 0 0 0 0 0 127 0" result="hardAlpha"/>
<feOffset dx="-3.17117"/>
<feGaussianBlur stdDeviation="3.17117"/>
<feComposite in2="hardAlpha" operator="arithmetic" k2="-1" k3="1"/>
<feColorMatrix type="matrix" values="0 0 0 0 1 0 0 0 0 1 0 0 0 0 1 0 0 0 0.1 0"/>
<feBlend mode="normal" in2="shape" result="effect2_innerShadow_3374_5217"/>
</filter>
<filter id="filter4_b_3374_5217" x="284.222" y="112.96" width="141.523" height="38.183" filterUnits="userSpaceOnUse" color-interpolation-filters="sRGB">
<feFlood flood-opacity="0" result="BackgroundImageFix"/>
<feGaussianBlur in="BackgroundImageFix" stdDeviation="1.8"/>
<feComposite in2="SourceAlpha" operator="in" result="effect1_backgroundBlur_3374_5217"/>
<feBlend mode="normal" in="SourceGraphic" in2="effect1_backgroundBlur_3374_5217" result="shape"/>
</filter>
<filter id="filter5_bi_3374_5217" x="228.604" y="175.46" width="256.865" height="210.883" filterUnits="userSpaceOnUse" color-interpolation-filters="sRGB">
<feFlood flood-opacity="0" result="BackgroundImageFix"/>
<feGaussianBlur in="BackgroundImageFix" stdDeviation="18.2342"/>
<feComposite in2="SourceAlpha" operator="in" result="effect1_backgroundBlur_3374_5217"/>
<feBlend mode="normal" in="SourceGraphic" in2="effect1_backgroundBlur_3374_5217" result="shape"/>
<feColorMatrix in="SourceAlpha" type="matrix" values="0 0 0 0 0 0 0 0 0 0 0 0 0 0 0 0 0 0 127 0" result="hardAlpha"/>
<feOffset dx="-3.17117"/>
<feGaussianBlur stdDeviation="3.17117"/>
<feComposite in2="hardAlpha" operator="arithmetic" k2="-1" k3="1"/>
<feColorMatrix type="matrix" values="0 0 0 0 1 0 0 0 0 1 0 0 0 0 1 0 0 0 0.1 0"/>
<feBlend mode="normal" in2="shape" result="effect2_innerShadow_3374_5217"/>
</filter>
<filter id="filter6_bi_3374_5217" x="103.586" y="196.928" width="253.568" height="198.072" filterUnits="userSpaceOnUse" color-interpolation-filters="sRGB">
<feFlood flood-opacity="0" result="BackgroundImageFix"/>
<feGaussianBlur in="BackgroundImageFix" stdDeviation="7.5"/>
<feComposite in2="SourceAlpha" operator="in" result="effect1_backgroundBlur_3374_5217"/>
<feBlend mode="normal" in="SourceGraphic" in2="effect1_backgroundBlur_3374_5217" result="shape"/>
<feColorMatrix in="SourceAlpha" type="matrix" values="0 0 0 0 0 0 0 0 0 0 0 0 0 0 0 0 0 0 127 0" result="hardAlpha"/>
<feOffset dx="-3.17117"/>
<feGaussianBlur stdDeviation="3.17117"/>
<feComposite in2="hardAlpha" operator="arithmetic" k2="-1" k3="1"/>
<feColorMatrix type="matrix" values="0 0 0 0 1 0 0 0 0 1 0 0 0 0 1 0 0 0 0.1 0"/>
<feBlend mode="normal" in2="shape" result="effect2_innerShadow_3374_5217"/>
</filter>
<filter id="filter7_bi_3374_5217" x="128.955" y="13" width="204.414" height="204.414" filterUnits="userSpaceOnUse" color-interpolation-filters="sRGB">
<feFlood flood-opacity="0" result="BackgroundImageFix"/>
<feGaussianBlur in="BackgroundImageFix" stdDeviation="7.5"/>
<feComposite in2="SourceAlpha" operator="in" result="effect1_backgroundBlur_3374_5217"/>
<feBlend mode="normal" in="SourceGraphic" in2="effect1_backgroundBlur_3374_5217" result="shape"/>
<feColorMatrix in="SourceAlpha" type="matrix" values="0 0 0 0 0 0 0 0 0 0 0 0 0 0 0 0 0 0 127 0" result="hardAlpha"/>
<feOffset dx="-3.17117"/>
<feGaussianBlur stdDeviation="3.17117"/>
<feComposite in2="hardAlpha" operator="arithmetic" k2="-1" k3="1"/>
<feColorMatrix type="matrix" values="0 0 0 0 1 0 0 0 0 1 0 0 0 0 1 0 0 0 0.1 0"/>
<feBlend mode="normal" in2="shape" result="effect2_innerShadow_3374_5217"/>
</filter>
<filter id="filter8_b_3374_5217" x="155.915" y="111.4" width="114.169" height="61.2" filterUnits="userSpaceOnUse" color-interpolation-filters="sRGB">
<feFlood flood-opacity="0" result="BackgroundImageFix"/>
<feGaussianBlur in="BackgroundImageFix" stdDeviation="1.8"/>
<feComposite in2="SourceAlpha" operator="in" result="effect1_backgroundBlur_3374_5217"/>
<feBlend mode="normal" in="SourceGraphic" in2="effect1_backgroundBlur_3374_5217" result="shape"/>
</filter>
<linearGradient id="paint0_linear_3374_5217" x1="261.481" y1="117.774" x2="110.866" y2="400.331" gradientUnits="userSpaceOnUse">
<stop offset="0.111466" stop-color="#8191E4"/>
<stop offset="0.706605" stop-color="#537CBB" stop-opacity="0.52"/>
<stop offset="1" stop-color="#314A67" stop-opacity="0.28"/>
</linearGradient>
<linearGradient id="paint1_linear_3374_5217" x1="-25.9628" y1="52.6646" x2="168.001" y2="190.52" gradientUnits="userSpaceOnUse">
<stop offset="0.111466" stop-color="#8191E4"/>
<stop offset="0.706605" stop-color="#537CBB" stop-opacity="0.52"/>
<stop offset="1" stop-color="#314A67" stop-opacity="0.28"/>
</linearGradient>
<linearGradient id="paint2_linear_3374_5217" x1="78" y1="150.365" x2="139.918" y2="150.365" gradientUnits="userSpaceOnUse">
<stop stop-color="white" stop-opacity="0.4"/>
<stop offset="1" stop-color="white" stop-opacity="0.6"/>
</linearGradient>
<linearGradient id="paint3_linear_3374_5217" x1="225.785" y1="52.6646" x2="419.748" y2="190.52" gradientUnits="userSpaceOnUse">
<stop offset="0.111466" stop-color="#E481D5"/>
<stop offset="0.706605" stop-color="#537CBB" stop-opacity="0.52"/>
<stop offset="1" stop-color="#673A31" stop-opacity="0.28"/>
</linearGradient>
<linearGradient id="paint4_linear_3374_5217" x1="287.822" y1="132.052" x2="422.144" y2="132.052" gradientUnits="userSpaceOnUse">
<stop stop-color="white" stop-opacity="0.4"/>
<stop offset="1" stop-color="white" stop-opacity="0.6"/>
</linearGradient>
<linearGradient id="paint5_linear_3374_5217" x1="513.229" y1="117.774" x2="362.613" y2="400.331" gradientUnits="userSpaceOnUse">
<stop offset="0.111466" stop-color="#D181E4"/>
<stop offset="0.706605" stop-color="#5383BB" stop-opacity="0.52"/>
<stop offset="1" stop-color="#673731" stop-opacity="0.28"/>
</linearGradient>
<linearGradient id="paint6_linear_3374_5217" x1="420.224" y1="97.2121" x2="236.475" y2="441.116" gradientUnits="userSpaceOnUse">
<stop offset="0.111466" stop-color="#81D3E4"/>
<stop offset="0.706605" stop-color="#539CBB" stop-opacity="0.52"/>
<stop offset="1" stop-color="#315A67" stop-opacity="0.28"/>
</linearGradient>
<linearGradient id="paint7_linear_3374_5217" x1="24.9102" y1="-32.9066" x2="329.71" y2="183.723" gradientUnits="userSpaceOnUse">
<stop offset="0.111466" stop-color="#E4DB81"/>
<stop offset="0.706605" stop-color="#539CBB" stop-opacity="0.52"/>
<stop offset="1" stop-color="#315A67" stop-opacity="0.28"/>
</linearGradient>
<linearGradient id="paint8_linear_3374_5217" x1="159" y1="115" x2="267" y2="115" gradientUnits="userSpaceOnUse">
<stop stop-color="white" stop-opacity="0.4"/>
<stop offset="1" stop-color="white" stop-opacity="0.6"/>
</linearGradient>
</defs>
</svg>
